HIERARCHY
ROOT Hips
{
  OFFSET 0.000000 95.000000 0.000000
  CHANNELS 6 Xposition Yposition Zposition Zrotation Xrotation Yrotation
  JOINT Spine
  {
    OFFSET 0.000000 10.000000 0.000000
    CHANNELS 3 Zrotation Xrotation Yrotation
    JOINT Spine1
    {
      OFFSET 0.000000 12.000000 0.000000
      CHANNELS 3 Zrotation Xrotation Yrotation
      JOINT Spine2
      {
        OFFSET 0.000000 12.000000 0.000000
        CHANNELS 3 Zrotation Xrotation Yrotation
        JOINT Neck
        {
          OFFSET 0.000000 10.000000 0.000000
          CHANNELS 3 Zrotation Xrotation Yrotation
          JOINT Head
          {
            OFFSET 0.000000 8.000000 0.000000
            CHANNELS 3 Zrotation Xrotation Yrotation
            End Site
            {
              OFFSET 0.000000 10.000000 0.000000
            }
          }
        }
        JOINT LeftShoulder
        {
          OFFSET 6.000000 8.000000 0.000000
          CHANNELS 3 Zrotation Xrotation Yrotation
          JOINT LeftArm
          {
            OFFSET 12.000000 0.000000 0.000000
            CHANNELS 3 Zrotation Xrotation Yrotation
            JOINT LeftForeArm
            {
              OFFSET 24.000000 0.000000 0.000000
              CHANNELS 3 Zrotation Xrotation Yrotation
              JOINT LeftHand
              {
                OFFSET 22.000000 0.000000 0.000000
                CHANNELS 3 Zrotation Xrotation Yrotation
                JOINT LeftHandThumb1
                {
                  OFFSET 1.800000 -1.400000 0.500000
                  CHANNELS 3 Zrotation Xrotation Yrotation
                  JOINT LeftHandThumb2
                  {
                    OFFSET 2.400000 0.000000 0.000000
                    CHANNELS 3 Zrotation Xrotation Yrotation
                    JOINT LeftHandThumb3
                    {
                      OFFSET 1.900000 0.000000 0.000000
                      CHANNELS 3 Zrotation Xrotation Yrotation
                      End Site
                      {
                        OFFSET 1.600000 0.000000 0.000000
                      }
                    }
                  }
                }
                JOINT LeftHandIndex1
                {
                  OFFSET 6.600000 1.200000 0.300000
                  CHANNELS 3 Zrotation Xrotation Yrotation
                  JOINT LeftHandIndex2
                  {
                    OFFSET 2.000000 0.000000 0.000000
                    CHANNELS 3 Zrotation Xrotation Yrotation
                    JOINT LeftHandIndex3
                    {
                      OFFSET 1.200000 0.000000 0.000000
                      CHANNELS 3 Zrotation Xrotation Yrotation
                      End Site
                      {
                        OFFSET 1.000000 0.000000 0.000000
                      }
                    }
                  }
                }
                JOINT LeftHandMiddle1
                {
                  OFFSET 7.200000 0.000000 0.300000
                  CHANNELS 3 Zrotation Xrotation Yrotation
                  JOINT LeftHandMiddle2
                  {
                    OFFSET 3.000000 0.000000 0.000000
                    CHANNELS 3 Zrotation Xrotation Yrotation
                    JOINT LeftHandMiddle3
                    {
                      OFFSET 2.000000 0.000000 0.000000
                      CHANNELS 3 Zrotation Xrotation Yrotation
                      End Site
                      {
                        OFFSET 1.600000 0.000000 0.000000
                      }
                    }
                  }
                }
                JOINT LeftHandRing1
                {
                  OFFSET 7.100000 -1.000000 0.400000
                  CHANNELS 3 Zrotation Xrotation Yrotation
                  JOINT LeftHandRing2
                  {
                    OFFSET 2.600000 0.000000 0.000000
                    CHANNELS 3 Zrotation Xrotation Yrotation
                    JOINT LeftHandRing3
                    {
                      OFFSET 1.600000 0.000000 0.000000
                      CHANNELS 3 Zrotation Xrotation Yrotation
                      End Site
                      {
                        OFFSET 1.300000 0.000000 0.000000
                      }
                    }
                  }
                }
                JOINT LeftHandPinky1
                {
                  OFFSET 6.500000 -2.000000 0.500000
                  CHANNELS 3 Zrotation Xrotation Yrotation
                  JOINT LeftHandPinky2
                  {
                    OFFSET 1.900000 0.000000 0.000000
                    CHANNELS 3 Zrotation Xrotation Yrotation
                    JOINT LeftHandPinky3
                    {
                      OFFSET 1.400000 0.000000 0.000000
                      CHANNELS 3 Zrotation Xrotation Yrotation
                      End Site
                      {
                        OFFSET 1.300000 0.000000 0.000000
                      }
                    }
                  }
                }
              }
            }
          }
        }
        JOINT RightShoulder
        {
          OFFSET -6.000000 8.000000 0.000000
          CHANNELS 3 Zrotation Xrotation Yrotation
          JOINT RightArm
          {
            OFFSET -12.000000 0.000000 0.000000
            CHANNELS 3 Zrotation Xrotation Yrotation
            JOINT RightForeArm
            {
              OFFSET -24.000000 0.000000 0.000000
              CHANNELS 3 Zrotation Xrotation Yrotation
              JOINT RightHand
              {
                OFFSET -22.000000 0.000000 0.000000
                CHANNELS 3 Zrotation Xrotation Yrotation
                JOINT RightHandThumb1
                {
                  OFFSET -1.800000 -1.400000 0.500000
                  CHANNELS 3 Zrotation Xrotation Yrotation
                  JOINT RightHandThumb2
                  {
                    OFFSET -2.400000 0.000000 0.000000
                    CHANNELS 3 Zrotation Xrotation Yrotation
                    JOINT RightHandThumb3
                    {
                      OFFSET -1.900000 0.000000 0.000000
                      CHANNELS 3 Zrotation Xrotation Yrotation
                      End Site
                      {
                        OFFSET -1.600000 0.000000 0.000000
                      }
                    }
                  }
                }
                JOINT RightHandIndex1
                {
                  OFFSET -6.600000 1.200000 0.300000
                  CHANNELS 3 Zrotation Xrotation Yrotation
                  JOINT RightHandIndex2
                  {
                    OFFSET -2.000000 0.000000 0.000000
                    CHANNELS 3 Zrotation Xrotation Yrotation
                    JOINT RightHandIndex3
                    {
                      OFFSET -1.200000 0.000000 0.000000
                      CHANNELS 3 Zrotation Xrotation Yrotation
                      End Site
                      {
                        OFFSET -1.000000 0.000000 0.000000
                      }
                    }
                  }
                }
                JOINT RightHandMiddle1
                {
                  OFFSET -7.200000 0.000000 0.300000
                  CHANNELS 3 Zrotation Xrotation Yrotation
                  JOINT RightHandMiddle2
                  {
                    OFFSET -3.000000 0.000000 0.000000
                    CHANNELS 3 Zrotation Xrotation Yrotation
                    JOINT RightHandMiddle3
                    {
                      OFFSET -2.000000 0.000000 0.000000
                      CHANNELS 3 Zrotation Xrotation Yrotation
                      End Site
                      {
                        OFFSET -1.600000 0.000000 0.000000
                      }
                    }
                  }
                }
                JOINT RightHandRing1
                {
                  OFFSET -7.100000 -1.000000 0.400000
                  CHANNELS 3 Zrotation Xrotation Yrotation
                  JOINT RightHandRing2
                  {
                    OFFSET -2.600000 0.000000 0.000000
                    CHANNELS 3 Zrotation Xrotation Yrotation
                    JOINT RightHandRing3
                    {
                      OFFSET -1.600000 0.000000 0.000000
                      CHANNELS 3 Zrotation Xrotation Yrotation
                      End Site
                      {
                        OFFSET -1.300000 0.000000 0.000000
                      }
                    }
                  }
                }
                JOINT RightHandPinky1
                {
                  OFFSET -6.500000 -2.000000 0.500000
                  CHANNELS 3 Zrotation Xrotation Yrotation
                  JOINT RightHandPinky2
                  {
                    OFFSET -1.900000 0.000000 0.000000
                    CHANNELS 3 Zrotation Xrotation Yrotation
                    JOINT RightHandPinky3
                    {
                      OFFSET -1.400000 0.000000 0.000000
                      CHANNELS 3 Zrotation Xrotation Yrotation
                      End Site
                      {
                        OFFSET -1.300000 0.000000 0.000000
                      }
                    }
                  }
                }
              }
            }
          }
        }
      }
    }
  }
  JOINT LeftUpLeg
  {
    OFFSET 10.000000 -5.000000 0.000000
    CHANNELS 3 Zrotation Xrotation Yrotation
    JOINT LeftLeg
    {
      OFFSET 0.000000 -42.000000 0.000000
      CHANNELS 3 Zrotation Xrotation Yrotation
      JOINT LeftFoot
      {
        OFFSET 0.000000 -42.000000 4.000000
        CHANNELS 3 Zrotation Xrotation Yrotation
        End Site
        {
          OFFSET 0.000000 0.000000 12.000000
        }
      }
    }
  }
  JOINT RightUpLeg
  {
    OFFSET -10.000000 -5.000000 0.000000
    CHANNELS 3 Zrotation Xrotation Yrotation
    JOINT RightLeg
    {
      OFFSET 0.000000 -42.000000 0.000000
      CHANNELS 3 Zrotation Xrotation Yrotation
      JOINT RightFoot
      {
        OFFSET 0.000000 -42.000000 4.000000
        CHANNELS 3 Zrotation Xrotation Yrotation
        End Site
        {
          OFFSET 0.000000 0.000000 12.000000
        }
      }
    }
  }
}
MOTION
Frames: 4
Frame Time: 0.033333
0.0000 95.0000 0.0000 0.0000 0.0000 0.0000 0.0000 0.0000 0.0000 0.0000 0.0000 0.0000 0.0000 0.0000 0.0000 0.0000 0.0000 0.0000 0.0000 0.0000 0.0000 0.0000 0.0000 0.0000 -71.7385 15.6150 21.4753 0.1923 0.2261 -0.3694 -57.1776 82.2287 -225.5890 51.6557 -6.7135 21.9129 3.2955 0.0000 0.0000 10.3310 0.0000 0.0000 6.7770 -2.7695 10.0181 0.0733 0.0000 0.0000 2.8275 0.0000 0.0000 16.7340 -1.6358 6.3160 7.1077 0.0000 0.0000 1.6249 0.0000 0.0000 26.8849 -2.5130 10.5823 7.2745 0.0000 0.0000 1.2559 0.0000 0.0000 37.6439 -3.2005 14.9946 8.7583 0.0000 0.0000 0.7741 0.0000 0.0000 0.0000 0.0000 0.0000 79.8114 -25.1118 29.8251 -132.1170 50.1174 -50.1046 -101.4529 -43.6866 89.9493 -61.4809 -12.2701 -5.9710 2.4617 0.0000 0.0000 27.4462 0.0000 0.0000 -7.7067 -1.9818 -6.4217 8.9649 0.0000 0.0000 9.0128 0.0000 0.0000 2.6272 0.0104 4.3173 2.2619 0.0000 0.0000 5.1544 0.0000 0.0000 -2.1768 -0.7947 5.5465 2.5616 0.0000 0.0000 5.4892 0.0000 0.0000 -13.4951 -2.0131 5.5464 6.8352 0.0000 0.0000 5.1248 0.0000 0.0000 0.0000 0.0000 0.0000 0.0000 0.0000 0.0000 0.0000 0.0000 0.0000 0.0000 0.0000 0.0000 0.0000 0.0000 0.0000 0.0000 0.0000 0.0000
0.0000 95.0000 0.0000 0.0000 0.0000 0.0000 0.0000 0.0000 0.0000 0.0000 0.0000 0.0000 0.0000 0.0000 0.0000 0.0000 0.0000 0.0000 0.0000 0.0000 0.0000 0.0000 0.0000 0.0000 -71.4086 15.4348 21.3564 -0.3278 0.2462 -0.2004 -129.2365 82.0658 -297.3561 50.4222 -5.8021 23.7333 3.2428 0.0000 0.0000 10.6377 0.0000 0.0000 5.5076 -3.1943 12.5654 0.4123 0.0000 0.0000 3.0077 0.0000 0.0000 16.0037 -1.9919 9.3281 6.8439 0.0000 0.0000 2.1434 0.0000 0.0000 25.6729 -2.6060 13.7400 7.0590 0.0000 0.0000 0.9064 0.0000 0.0000 35.9861 -2.9246 18.4523 9.3653 0.0000 0.0000 0.7442 0.0000 0.0000 0.0000 0.0000 0.0000 79.6592 -24.9489 29.7108 -133.5768 52.0047 -51.3369 -108.0510 -44.5578 101.2947 -62.6221 -12.9995 -0.9415 3.5793 0.0000 0.0000 12.1199 0.0000 0.0000 -7.7435 -1.1688 -3.2076 4.5650 0.0000 0.0000 7.0885 0.0000 0.0000 1.6157 0.0069 4.2823 5.8454 0.0000 0.0000 4.2554 0.0000 0.0000 -4.1349 -0.8659 6.1029 2.0666 0.0000 0.0000 4.5014 0.0000 0.0000 -13.9985 -2.3720 7.5156 5.9996 0.0000 0.0000 3.9166 0.0000 0.0000 0.0000 0.0000 0.0000 0.0000 0.0000 0.0000 0.0000 0.0000 0.0000 0.0000 0.0000 0.0000 0.0000 0.0000 0.0000 0.0000 0.0000 0.0000
0.0000 95.0000 0.0000 0.0000 0.0000 0.0000 0.0000 0.0000 0.0000 0.0000 0.0000 0.0000 0.0000 0.0000 0.0000 0.0000 0.0000 0.0000 0.0000 0.0000 0.0000 0.0000 0.0000 0.0000 -71.2684 15.2509 21.1581 -0.5723 0.1113 0.0707 -152.8547 77.5147 -320.5380 49.7186 -5.2993 24.5949 3.1962 0.0000 0.0000 10.9370 0.0000 0.0000 4.5295 -3.4034 14.1780 0.8986 0.0000 0.0000 3.2181 0.0000 0.0000 15.2404 -2.1839 11.4446 6.6446 0.0000 0.0000 2.7029 0.0000 0.0000 24.6723 -2.5925 15.8343 6.9291 0.0000 0.0000 0.5427 0.0000 0.0000 34.7341 -2.6447 20.6868 10.0032 0.0000 0.0000 0.8572 0.0000 0.0000 0.0000 0.0000 0.0000 79.4931 -24.8073 29.6278 -133.9597 53.0265 -51.6580 -105.8312 -41.8899 93.5608 -60.5659 -12.1414 -5.2650 2.2096 0.0000 0.0000 26.5668 0.0000 0.0000 -7.0458 -1.5297 -4.8824 9.6857 0.0000 0.0000 6.8009 0.0000 0.0000 0.6134 0.0088 3.1318 4.6997 0.0000 0.0000 2.8565 0.0000 0.0000 -4.2011 -0.6286 3.8029 1.2125 0.0000 0.0000 4.6659 0.0000 0.0000 -14.0575 -1.9369 5.0420 4.8254 0.0000 0.0000 4.3773 0.0000 0.0000 0.0000 0.0000 0.0000 0.0000 0.0000 0.0000 0.0000 0.0000 0.0000 0.0000 0.0000 0.0000 0.0000 0.0000 0.0000 0.0000 0.0000 0.0000
0.0000 95.0000 0.0000 0.0000 0.0000 0.0000 0.0000 0.0000 0.0000 0.0000 0.0000 0.0000 0.0000 0.0000 0.0000 0.0000 0.0000 0.0000 0.0000 0.0000 0.0000 0.0000 0.0000 0.0000 -71.0916 15.3406 21.3491 -0.1926 -0.2816 0.4488 -161.9181 74.4902 -329.4855 49.3957 -5.0693 24.9659 3.1567 0.0000 0.0000 11.2285 0.0000 0.0000 3.8199 -3.5198 15.2666 1.3909 0.0000 0.0000 3.4549 0.0000 0.0000 14.5507 -2.2920 13.0391 6.5216 0.0000 0.0000 3.2930 0.0000 0.0000 23.9022 -2.5486 17.3290 6.8950 0.0000 0.0000 0.1640 0.0000 0.0000 33.8320 -2.4110 22.2528 10.6701 0.0000 0.0000 1.0778 0.0000 0.0000 0.0000 0.0000 0.0000 79.4100 -24.8720 29.7460 -133.4515 53.4895 -51.5132 -112.0510 -46.6188 102.9262 -61.2034 -12.9176 0.7359 2.5417 0.0000 0.0000 21.0951 0.0000 0.0000 -8.1308 -1.2748 -3.5040 1.8469 0.0000 0.0000 8.5096 0.0000 0.0000 1.5389 -0.0451 8.1319 2.9532 0.0000 0.0000 3.2320 0.0000 0.0000 -1.8017 -1.4054 10.4754 4.4256 0.0000 0.0000 4.6047 0.0000 0.0000 -12.5254 -3.3754 12.8394 7.7145 0.0000 0.0000 3.5359 0.0000 0.0000 0.0000 0.0000 0.0000 0.0000 0.0000 0.0000 0.0000 0.0000 0.0000 0.0000 0.0000 0.0000 0.0000 0.0000 0.0000 0.0000 0.0000 0.0000
